<svg width="29" height="19" viewBox="0 0 29 19" fill="none" xmlns="http://www.w3.org/2000/svg">
<path d="M27.5 16.5H1.5C0.947715 16.5 0.5 16.9477 0.5 17.5C0.5 18.0523 0.947715 18.5 1.5 18.5H27.5C28.0523 18.5 28.5 18.0523 28.5 17.5C28.5 16.9477 28.0523 16.5 27.5 16.5Z" fill="white" stroke="white"/>
<path d="M27.5 8.5H1.5C0.947715 8.5 0.5 8.94772 0.5 9.5C0.5 10.0523 0.947715 10.5 1.5 10.5H27.5C28.0523 10.5 28.5 10.0523 28.5 9.5C28.5 8.94772 28.0523 8.5 27.5 8.5Z" fill="white" stroke="white"/>
<path d="M27.5 0.5H1.5C0.947715 0.5 0.5 0.947715 0.5 1.5C0.5 2.05228 0.947715 2.5 1.5 2.5H27.5C28.0523 2.5 28.5 2.05228 28.5 1.5C28.5 0.947715 28.0523 0.5 27.5 0.5Z" fill="white" stroke="white"/>
</svg>
